<svg id="Capa_2" data-name="Capa 2" xmlns="http://www.w3.org/2000/svg" viewBox="0 0 109.69 67.96"><defs><style>.cls-1{fill:#ef7e83;}</style></defs><title>logorosa</title><path class="cls-1" d="M223.89,302.12a15.21,15.21,0,0,0-1.68-2.12,6.48,6.48,0,0,0-2-1.59,3,3,0,0,0-.82-.22,1.62,1.62,0,0,0-.93.19A6.07,6.07,0,0,0,216.6,300c-.7.78-1.58,1.88-2.13,2.53s-.77.77-1.05.74h-.14a.71.71,0,0,1-.45-.39l.18-1.95c.13-.79.38-20.7.5-21.86.14-1.52.27-2.84.28-3.68l.1-1a1.15,1.15,0,0,1,.12-.55,1.73,1.73,0,0,1,1-.32l2.09.12c1.12,0,3,0,4.06,0s1.42-.14,1.67-.54a4.79,4.79,0,0,0,.62-2.11l.33-3.47c0-.84-.11-1.06-.52-1.17a11.27,11.27,0,0,0-2.55-.39c-1.32-.12-3.2-.23-4.32-.27l-1,0c-.28,0-.41-.11-.46-.25a2,2,0,0,1,0-.84l.95-9.23c.1-1.81,0-2.17-.19-2.47s-.44-.53-1.61-.78l-1-.1c-1.11-.1-2.5-.17-3.48-.19a4.34,4.34,0,0,0-2.2.28c-.29.18-.38.38-.51,1s-.16,1.67-.3,2.42l-.3,2.43c-.1,1-.24,2.43-.42,3.6l-.38,2.48-.21.82a7,7,0,0,1-1.54-.07l-3-.43-2.09-.13c-.34,0-.34,0-.49.1s-.46.37-.71,1.47c-.14.76-.31,1.79-.39,2.69L197,270c0,1.19.28,1.56.61,1.73a4.22,4.22,0,0,0,1.92.47c1.1.17,2.77.33,3.67.42s1,.17,1.14.46a10.36,10.36,0,0,1,0,1.75l-.33,4.17c0,.18,0,.39-.07.58h0c-.19,3.66-.5,21-.68,22.87-.2,2.15-.29,4.52-.3,6.13a6,6,0,0,0,.6,3.28,5.55,5.55,0,0,0,3.08,2.19,10.06,10.06,0,0,0,2.13.41,11,11,0,0,0,4.38-.42,19.52,19.52,0,0,0,6.66-4.41,26.9,26.9,0,0,0,3.57-4.42,4.21,4.21,0,0,0,.59-1.83A2.47,2.47,0,0,0,223.89,302.12Z" transform="translate(-197 -246.58)"/><path class="cls-1" d="M284.35,296a11.24,11.24,0,0,1-9.05-2.14c-4.18-3.05-5.95-9.1-6.8-13.7-.41-2.19-.61-4-.8-5a36.27,36.27,0,0,1,0-10.71,10.71,10.71,0,0,1,8.81-8.66,8.81,8.81,0,0,1,1.94-.22c3.11-.08,7.17,1.15,8.54,4.37.63,1.87,2.46,4.43,2.83,6.42a2.66,2.66,0,0,1,.07.77c.22,1.94-2.29,2.91-4.49,3.31a8.68,8.68,0,0,1-1.45.2c-2.55,0-2.42-3.09-3.48-4.6a1.44,1.44,0,0,0-1-.17,4.29,4.29,0,0,0-2.9,3.09,26.32,26.32,0,0,0,.1,8.56c.61,3.29,1.82,6,3.09,7.08,1.17,1.34,2.35,2,3.73,1.72a4.33,4.33,0,0,0,1.26-.45c1.77-1.53.23-4.08.56-6.13,0-1.42,2.3-2.91,4.21-3.27a2.81,2.81,0,0,1,2.17.24,7,7,0,0,1,1.62,3.74,14.13,14.13,0,0,1,.25,1.73c.64,4.2-.13,9.59-4,11.8A16.3,16.3,0,0,1,284.35,296Z" transform="translate(-197 -246.58)"/><path class="cls-1" d="M294.39,293c-.49-.14-.63-.35-.63-1.12s-.07-2.3-.21-3.9-.35-3.56-.42-5.72l.07-7.32.28-7.8c.07-2.09.14-3.28,1.18-4.05s3-1,4.54-1.11h.9a4.22,4.22,0,0,1,2.51.49c.63.48.77,1.32.91,2.58a38.21,38.21,0,0,1,.49,4.67c0,1.81-.07,3.69-.14,6.06s0,5.09.14,7.67.34,4.81.34,6.34-.2,2.44-1.53,2.86a18.5,18.5,0,0,1-5.37.63A12.14,12.14,0,0,1,294.39,293Z" transform="translate(-197 -246.58)"/><path class="cls-1" d="M247,263.67h-.15c-7.44,0-14,.9-21.54,6.06-5.46,3.84-5.46,9-5.46,15v1.81c0,5.93.91,10.67,6.82,14.08,6.07,4.46,10.77,4.26,20.78,4.39a28.4,28.4,0,0,0,17.6-7.38c3.79-4.4,6.21-8.3,6.67-15.2v-.84C271.7,269.94,259.26,263.67,247,263.67Zm5.68,32.06a24.19,24.19,0,0,1-6.27.56,35.68,35.68,0,0,1-7.46-.63c-7.77-2.23-11.05-7.08-11.05-11.93a13.21,13.21,0,0,1,9-12.15,29,29,0,0,1,9.85-1.67A29.63,29.63,0,0,1,258,272.05c2.68,1.2,4.18,4.93,4.18,9.06C262.22,286.91,259.53,293.59,252.66,295.73Z" transform="translate(-197 -246.58)"/><path class="cls-1" d="M237.88,290.2c-.22-.06-.29-.16-.29-.52s0-1.06-.1-1.8-.16-1.64-.19-2.64l0-3.38.13-3.61c0-1,.07-1.51.55-1.86a4.8,4.8,0,0,1,2.09-.52h.42a1.9,1.9,0,0,1,1.16.23c.29.22.36.61.42,1.19a16.84,16.84,0,0,1,.22,2.15c0,.84,0,1.71-.06,2.81s0,2.35.06,3.54.17,2.22.17,2.93-.1,1.13-.71,1.32a8.8,8.8,0,0,1-2.48.29A6,6,0,0,1,237.88,290.2Z" transform="translate(-197 -246.58)"/><path class="cls-1" d="M248.81,289.45c-.22-.07-.29-.16-.29-.52s0-1.06-.09-1.8-.16-1.64-.19-2.64l0-3.38.13-3.61c0-1,.06-1.51.54-1.87a5,5,0,0,1,2.1-.51h.42a2,2,0,0,1,1.15.22c.29.23.36.62.42,1.2a16.68,16.68,0,0,1,.23,2.15c0,.84,0,1.71-.07,2.81s0,2.35.07,3.54.16,2.22.16,2.93-.1,1.13-.71,1.32a8.8,8.8,0,0,1-2.48.29A6,6,0,0,1,248.81,289.45Z" transform="translate(-197 -246.58)"/><path class="cls-1" d="M297.43,256.94c-.52,0-1-.06-1.33-.11l-1.11-.14a5.44,5.44,0,0,1-3.14-1.84,4.42,4.42,0,0,1-1.05-3.25,5.7,5.7,0,0,1,1.4-3.55,4.38,4.38,0,0,1,3.27-1.46,42.33,42.33,0,0,1,6.91.55c2.83.38,4.27,1.63,4.32,3.77a5.9,5.9,0,0,1-1.22,3.59,5.5,5.5,0,0,1-3,2.12c-.51.1-1.24.19-2.19.28s-1.5.14-1.64.14C298.36,257,297.94,257,297.43,256.94Z" transform="translate(-197 -246.58)"/></svg>