<svg id="Capa_2_copia" data-name="Capa 2 copia" xmlns="http://www.w3.org/2000/svg" viewBox="0 0 109.69 67.96"><defs><style>.cls-1{fill:#795c68;}</style></defs><title>logomorado</title><path class="cls-1" d="M205.84,375.14a15.58,15.58,0,0,0-1.69-2.12,6.69,6.69,0,0,0-2-1.6,3.41,3.41,0,0,0-.82-.21,1.62,1.62,0,0,0-.93.19,6.07,6.07,0,0,0-1.84,1.64c-.7.78-1.58,1.88-2.13,2.53s-.77.77-1,.74h-.14a.73.73,0,0,1-.45-.4L195,374c.13-.79.38-20.7.5-21.86.14-1.53.27-2.84.28-3.68l.1-1a1.15,1.15,0,0,1,.12-.55,1.81,1.81,0,0,1,1-.33l2.09.13c1.12,0,3,0,4.06,0s1.42-.15,1.67-.54a4.79,4.79,0,0,0,.62-2.11l.33-3.47c0-.84-.11-1.06-.52-1.17a11.16,11.16,0,0,0-2.55-.39c-1.32-.12-3.2-.23-4.32-.27l-1,0c-.27,0-.41-.11-.46-.26a2,2,0,0,1,0-.83l1-9.23c.1-1.81,0-2.17-.19-2.47s-.44-.53-1.6-.78l-1-.1c-1.12-.1-2.51-.17-3.49-.19a4.22,4.22,0,0,0-2.2.28c-.29.18-.38.38-.51,1s-.16,1.67-.3,2.42l-.3,2.43c-.1,1-.23,2.42-.42,3.6l-.37,2.48-.22.82a8.54,8.54,0,0,1-1.53-.07l-3-.43-2.08-.13c-.35,0-.35,0-.5.09s-.46.38-.7,1.48c-.15.76-.31,1.79-.4,2.69L179,343c0,1.2.27,1.57.6,1.74a4.22,4.22,0,0,0,1.92.47c1.1.17,2.77.33,3.67.42s1,.16,1.15.46a12.26,12.26,0,0,1,0,1.75L186,352c0,.18,0,.38-.06.58h0c-.18,3.66-.5,21-.67,22.87-.21,2.15-.3,4.52-.31,6.13a6,6,0,0,0,.6,3.28,5.59,5.59,0,0,0,3.08,2.19,10.74,10.74,0,0,0,2.13.41,11.23,11.23,0,0,0,4.38-.42,19.71,19.71,0,0,0,6.66-4.41,26.9,26.9,0,0,0,3.57-4.42,4.22,4.22,0,0,0,.6-1.84A2.56,2.56,0,0,0,205.84,375.14Z" transform="translate(-178.95 -319.6)"/><path class="cls-1" d="M266.29,369a11.27,11.27,0,0,1-9.05-2.14c-4.18-3.05-6-9.11-6.8-13.7-.41-2.19-.6-4-.8-5a36.54,36.54,0,0,1,0-10.7,10.71,10.71,0,0,1,8.81-8.66,8.88,8.88,0,0,1,1.94-.22c3.11-.08,7.17,1.15,8.54,4.37.64,1.86,2.46,4.43,2.83,6.42a2.66,2.66,0,0,1,.07.77c.22,1.94-2.29,2.9-4.49,3.31a9.87,9.87,0,0,1-1.45.2c-2.55,0-2.42-3.09-3.48-4.6a1.44,1.44,0,0,0-1-.17,4.29,4.29,0,0,0-2.9,3.09,26.32,26.32,0,0,0,.1,8.56c.62,3.29,1.82,6,3.09,7.08,1.17,1.34,2.36,2,3.73,1.72a4.64,4.64,0,0,0,1.26-.45c1.77-1.53.23-4.08.56-6.13,0-1.42,2.3-2.91,4.22-3.27a2.82,2.82,0,0,1,2.17.24,7.06,7.06,0,0,1,1.61,3.74,12.43,12.43,0,0,1,.25,1.73c.64,4.2-.13,9.59-4,11.8A16.13,16.13,0,0,1,266.29,369Z" transform="translate(-178.95 -319.6)"/><path class="cls-1" d="M276.33,366c-.49-.14-.63-.35-.63-1.12s-.07-2.3-.21-3.9-.35-3.56-.42-5.72l.07-7.32.28-7.8c.07-2.1.14-3.28,1.19-4.05s3-1,4.53-1.11h.9a4.28,4.28,0,0,1,2.51.48c.63.49.77,1.33.91,2.58a38.64,38.64,0,0,1,.49,4.67c0,1.82-.07,3.7-.14,6.07s0,5.09.14,7.67.35,4.81.35,6.34-.21,2.44-1.54,2.86a18.5,18.5,0,0,1-5.37.63A12.14,12.14,0,0,1,276.33,366Z" transform="translate(-178.95 -319.6)"/><path class="cls-1" d="M228.92,336.69h-.15c-7.44,0-14,.9-21.54,6.06-5.46,3.83-5.46,9-5.46,15v1.81c0,5.93.91,10.67,6.82,14.08,6.07,4.46,10.77,4.25,20.78,4.39a28.4,28.4,0,0,0,17.6-7.39c3.79-4.39,6.22-8.29,6.67-15.19v-.84C253.64,343,241.2,336.69,228.92,336.69Zm5.68,32.06a24.19,24.19,0,0,1-6.27.56,34.89,34.89,0,0,1-7.46-.64c-7.77-2.22-11.05-7.07-11.05-11.92a13.23,13.23,0,0,1,9-12.16,29.27,29.27,0,0,1,9.85-1.66A29.63,29.63,0,0,1,240,345.07c2.68,1.19,4.18,4.93,4.18,9.06C244.16,359.93,241.47,366.61,234.6,368.75Z" transform="translate(-178.95 -319.6)"/><path class="cls-1" d="M219.82,363.22c-.22-.07-.29-.16-.29-.52s0-1.06-.09-1.8-.16-1.64-.2-2.64l0-3.38.12-3.61c0-1,.07-1.51.55-1.87a5,5,0,0,1,2.09-.51h.42a2,2,0,0,1,1.16.22c.29.23.36.62.42,1.2a18.68,18.68,0,0,1,.23,2.15c0,.84,0,1.71-.07,2.8s0,2.36.07,3.55.16,2.22.16,2.93-.1,1.12-.71,1.32a8.8,8.8,0,0,1-2.48.29A6,6,0,0,1,219.82,363.22Z" transform="translate(-178.95 -319.6)"/><path class="cls-1" d="M230.76,362.47c-.23-.07-.29-.16-.29-.52s0-1.06-.1-1.8-.16-1.64-.19-2.64l0-3.38.13-3.61c0-1,.06-1.51.54-1.87a5,5,0,0,1,2.1-.51h.42a2,2,0,0,1,1.16.22c.29.23.35.62.41,1.2a16.49,16.49,0,0,1,.23,2.15c0,.84,0,1.71-.06,2.8s0,2.36.06,3.55.16,2.22.16,2.93-.1,1.12-.71,1.32a8.75,8.75,0,0,1-2.48.29A5.78,5.78,0,0,1,230.76,362.47Z" transform="translate(-178.95 -319.6)"/><path class="cls-1" d="M279.37,330c-.51,0-1-.06-1.33-.11l-1.11-.14a5.4,5.4,0,0,1-3.14-1.85,4.34,4.34,0,0,1-1-3.24,5.64,5.64,0,0,1,1.39-3.55,4.44,4.44,0,0,1,3.27-1.47,42.52,42.52,0,0,1,6.91.56q4.24.55,4.32,3.77a5.92,5.92,0,0,1-1.22,3.59,5.51,5.51,0,0,1-3,2.12c-.52.1-1.25.19-2.2.28s-1.5.14-1.64.14A11.5,11.5,0,0,0,279.37,330Z" transform="translate(-178.95 -319.6)"/></svg>